<?xml version="1.0" encoding="UTF-8" standalone="no"?>
<!-- Created with Inkscape (http://www.inkscape.org/) -->

<svg
   width="60.0mm"
   height="15.0mm"
   viewBox="0 0 60.0 15.0"
   version="1.1"
   id="svg956"
   sodipodi:docname="logo.svg"
   inkscape:version="1.1.2 (0a00cf5339, 2022-02-04, custom)"
   xmlns:inkscape="http://www.inkscape.org/namespaces/inkscape"
   xmlns:sodipodi="http://sodipodi.sourceforge.net/DTD/sodipodi-0.dtd"
   xmlns="http://www.w3.org/2000/svg"
   xmlns:svg="http://www.w3.org/2000/svg">
  <sodipodi:namedview
     id="namedview958"
     pagecolor="#ffffff"
     bordercolor="#666666"
     borderopacity="1.0"
     inkscape:pageshadow="2"
     inkscape:pageopacity="0.0"
     inkscape:pagecheckerboard="0"
     inkscape:document-units="mm"
     showgrid="true"
     inkscape:zoom="28.986775"
     inkscape:cx="120.50323"
     inkscape:cy="16.386783"
     inkscape:window-width="2560"
     inkscape:window-height="1417"
     inkscape:window-x="-8"
     inkscape:window-y="-8"
     inkscape:window-maximized="1"
     inkscape:current-layer="g1041"
     borderlayer="true">
    <inkscape:grid
       spacingx="2.54"
       spacingy="2.54"
       empspacing="1"
       type="xygrid"
       units="mm"
       id="grid1021" />
  </sodipodi:namedview>
  <defs
     id="defs953" />
  <g
     inkscape:label="[fixed] BG"
     inkscape:groupmode="layer"
     sodipodi:insensitive="true"
     id="g1027">
    <rect
       x="0"
       y="0"
       width="60.0"
       height="15.0"
       style="fill:#FFFFFF;fill-opacity:1;stroke:none"
       id="rect1025" />
  </g>
  <g
     inkscape:label="Edge.Cuts"
     inkscape:groupmode="layer"
     id="g1029" />
  <g
     inkscape:label="B.Cu"
     inkscape:groupmode="layer"
     id="g1031" />
  <g
     inkscape:label="B.Mask"
     inkscape:groupmode="layer"
     id="g1033" />
  <g
     inkscape:label="B.SilkS"
     inkscape:groupmode="layer"
     id="g1035"
     style="display:inline" />
  <g
     inkscape:label="F.Cu"
     inkscape:groupmode="layer"
     id="g1037"
     style="display:inline">
    <path
       id="path15581"
       style="color:#000000;-inkscape-font-specification:ParaAminobenzoic;display:inline;opacity:1;fill:#fd7e14;stroke-width:2.51339;-inkscape-stroke:none"
       d="m 12.714844,12.884766 c -0.933331,0 -1.680236,0.267449 -2.240235,0.800781 -0.5599979,0.506665 -0.8398434,1.278363 -0.8398434,2.318359 v 2.921875 c 0,0.719998 0.1585167,1.37232 0.4785154,1.958985 0.346666,0.586664 0.786981,1.107215 1.320313,1.560546 0.533331,0.426666 1.146513,0.786746 1.839844,1.080079 0.719997,0.293332 1.440158,0.519688 2.160156,0.679687 -1.679995,0.533332 -3.066827,1.265888 -4.160156,2.199219 -1.09333,0.93333 -1.6386724,2.093806 -1.6386724,3.480469 v 7.679687 c 0,1.279996 0.2922415,2.240862 0.8789064,2.880859 0.613331,0.613332 1.586593,0.919922 2.919922,0.919922 2.639991,0 3.960937,-1.267456 3.960937,-3.800781 v -7 c 0,-1.17333 0.318987,-2.027215 0.958985,-2.560547 0.639998,-0.533331 1.479534,-0.798828 2.519531,-0.798828 1.039997,0 1.867137,0.265497 2.480469,0.798828 0.639997,0.506665 0.960937,1.307061 0.960937,2.400391 v 9 c 0,0.533332 0.133725,1.000391 0.400391,1.400391 0.293332,0.373331 0.772788,0.560546 1.439453,0.560546 0.639998,0 1.107058,-0.187215 1.400391,-0.560546 0.293332,-0.400001 0.439453,-0.867059 0.439453,-1.400391 v -9.798828 c 0,-1.279996 -0.294195,-2.386982 -0.88086,-3.320313 -0.559998,-0.93333 -1.46542,-1.626746 -2.71875,-2.080078 1.25333,-0.533332 2.158752,-1.292633 2.71875,-2.279297 0.586665,-1.01333 0.88086,-2.066826 0.88086,-3.160156 v -3.839844 c 0,-1.359995 -0.613181,-2.041015 -1.839844,-2.041015 -0.533332,0 -0.973647,0.172865 -1.320313,0.519531 -0.346665,0.319999 -0.519531,0.828153 -0.519531,1.521484 v 3.919922 c 0,1.01333 -0.347685,1.799377 -1.041015,2.359375 -0.693332,0.533332 -1.520472,0.798828 -2.480469,0.798828 -0.986664,0 -1.8262,-0.265496 -2.519531,-0.798828 -0.693332,-0.559998 -1.039063,-1.346045 -1.039063,-2.359375 v -2.841797 c 0,-0.93333 -0.240705,-1.678283 -0.720703,-2.238281 -0.479999,-0.586665 -1.159065,-0.880859 -2.039063,-0.880859 z m 20.478515,0 c -1.573328,0 -2.359375,0.893026 -2.359375,2.679687 v 23.640625 c 0,1.439995 0.786047,2.160156 2.359375,2.160156 h 8.560547 c 1.199995,0 2.265887,-0.187215 3.199219,-0.560546 0.959997,-0.4 1.774743,-0.947296 2.441406,-1.640626 0.666666,-0.693331 1.172866,-1.518518 1.519531,-2.478515 0.346664,-0.959997 0.519532,-2.027842 0.519532,-3.201172 v -9.279297 c 0,-1.839994 -0.146122,-3.46753 -0.439453,-4.880859 -0.266666,-1.413329 -0.772868,-2.586201 -1.519532,-3.519531 -0.719997,-0.959997 -1.707608,-1.680158 -2.960937,-2.160157 -1.253329,-0.506665 -2.854121,-0.759765 -4.800781,-0.759765 z m 34.919922,0 c -0.533331,0 -1.051928,0.08023 -1.558593,0.240234 -0.479998,0.159999 -0.920316,0.400704 -1.320313,0.720703 -0.373332,0.293333 -0.679922,0.653413 -0.919922,1.080078 -0.24,0.426666 -0.361328,0.891773 -0.361328,1.398438 v 21.919922 c 0,0.879997 0.30659,1.626905 0.919922,2.240234 0.639997,0.586666 1.427996,0.880859 2.361328,0.880859 h 20.599609 c 1.786661,0 3.039769,-0.440315 3.759766,-1.320312 0.719997,-0.906663 1.080078,-2.186516 1.080078,-3.839844 V 14.765625 c 0,-0.613331 -0.187215,-1.080392 -0.560547,-1.400391 -0.346666,-0.319999 -0.760237,-0.480468 -1.240234,-0.480468 -0.453332,0 -0.840156,0.160469 -1.160156,0.480468 -0.293332,0.319999 -0.439453,0.78706 -0.439453,1.400391 v 18.599609 c 0,1.279996 -0.306591,2.226513 -0.919922,2.839844 -0.613332,0.586665 -1.479612,0.878906 -2.59961,0.878906 -1.253329,0 -2.199846,-0.279845 -2.839844,-0.839843 -0.613331,-0.559999 -0.919921,-1.518911 -0.919921,-2.878907 v -19 c 0,-0.533332 -0.121329,-0.907762 -0.361329,-1.121093 -0.239997,-0.24 -0.558984,-0.359375 -0.958984,-0.359375 -0.426666,0 -0.77435,0.119375 -1.041016,0.359375 -0.266665,0.213332 -0.398437,0.587762 -0.398437,1.121093 v 19 c 0,1.359996 -0.347686,2.360002 -1.041016,3 -0.666665,0.613332 -1.559692,0.919922 -2.679687,0.919922 -0.986666,0 -1.826202,-0.347684 -2.519531,-1.041015 -0.666666,-0.719998 -1,-1.67891 -1,-2.878907 V 16.324219 c 0,-1.039997 -0.386825,-1.865184 -1.160157,-2.478516 -0.746663,-0.639998 -1.654039,-0.960937 -2.720703,-0.960937 z m 31.560547,0 c -1.146663,0 -2.134274,0.294194 -2.960937,0.880859 -0.826664,0.586665 -1.238282,1.426201 -1.238282,2.519531 v 21.71875 c 0,1.066664 0.411618,1.893806 1.238282,2.480469 0.826663,0.586666 1.814274,0.880859 2.960937,0.880859 1.146662,0 2.119922,-0.294193 2.919922,-0.880859 0.82666,-0.613329 1.24023,-1.440471 1.24023,-2.480469 v -21.71875 c 0,-1.09333 -0.41357,-1.932866 -1.24023,-2.519531 -0.8,-0.586665 -1.77326,-0.880859 -2.919922,-0.880859 z m 24.240232,0 c -0.53333,0 -1.01279,0.10698 -1.43945,0.320312 -0.42667,0.186666 -0.78674,0.439767 -1.08008,0.759766 -0.29333,0.319999 -0.52164,0.680079 -0.68164,1.080078 -0.16,0.399999 -0.23828,0.79922 -0.23828,1.199219 v 21.121093 c 0,1.413329 0.31899,2.440081 0.95898,3.080078 0.64,0.613332 1.61326,0.919922 2.91993,0.919922 1.03999,0 1.94737,-0.30659 2.7207,-0.919922 0.77333,-0.639997 1.16016,-1.666749 1.16016,-3.080078 v -7.041015 c 0,-1.333329 0.33333,-2.279846 1,-2.839844 0.66666,-0.559998 1.55969,-0.839844 2.67968,-0.839844 h 3.51953 c 0.53334,0 0.98605,-0.133725 1.35938,-0.40039 0.37333,-0.293333 0.56055,-0.719299 0.56055,-1.279297 0,-0.506665 -0.17287,-0.905887 -0.51954,-1.199219 -0.32,-0.293332 -0.78706,-0.441406 -1.40039,-0.441406 h -3.51953 c -1.01333,0 -1.78698,-0.345732 -2.32031,-1.039063 -0.53333,-0.719997 -0.80078,-1.600628 -0.80078,-2.640625 0,-1.119996 0.30659,-1.959533 0.91992,-2.519531 0.64,-0.586665 1.40125,-0.880859 2.28125,-0.880859 h 3.47852 c 0.66666,0 1.14807,-0.146121 1.4414,-0.439453 0.29333,-0.319999 0.43946,-0.73357 0.43946,-1.240235 0,-0.533332 -0.14613,-0.946902 -0.43946,-1.240234 -0.29333,-0.293333 -0.77474,-0.439453 -1.4414,-0.439453 z m 19.32032,0 c -1.14667,0 -2.13428,0.294194 -2.96094,0.880859 -0.82667,0.586665 -1.24024,1.426201 -1.24024,2.519531 v 21.71875 c 0,1.066664 0.41357,1.893806 1.24024,2.480469 0.82666,0.586666 1.81427,0.880859 2.96094,0.880859 1.14666,0 2.11992,-0.294193 2.91992,-0.880859 0.82666,-0.613329 1.24023,-1.440471 1.24023,-2.480469 v -21.71875 c 0,-1.09333 -0.41357,-1.932866 -1.24023,-2.519531 -0.8,-0.586665 -1.77326,-0.880859 -2.91992,-0.880859 z M 40.994141,17.244141 c 1.70666,0 2.945418,0.481409 3.71875,1.441406 0.799997,0.959997 1.201171,2.17201 1.201171,3.638672 v 10.960937 c 0,1.333329 -0.401174,2.360081 -1.201171,3.080078 -0.799998,0.719998 -2.092246,1.080078 -3.878907,1.080078 -0.613331,0 -1.092787,-0.19961 -1.439453,-0.599609 -0.346666,-0.399999 -0.521484,-0.920549 -0.521484,-1.560547 V 19.644531 c 0,-1.599995 0.707764,-2.40039 2.121094,-2.40039 z m 67.199219,8.160156 c -1.06666,0 -1.59961,0.532946 -1.59961,1.599609 0,1.01333 0.53295,1.521485 1.59961,1.521485 h 7.91992 c 1.06666,0 1.59961,-0.508155 1.59961,-1.521485 0,-1.066663 -0.53295,-1.599609 -1.59961,-1.599609 z"
       transform="scale(0.26458333)" />
  </g>
  <g
     inkscape:label="F.Mask"
     inkscape:groupmode="layer"
     id="g1039"
     style="display:inline">
    <text
       xml:space="preserve"
       style="font-size:10.5833px;line-height:1.25;font-family:ParaAminobenzoic;-inkscape-font-specification:ParaAminobenzoic;display:inline;fill:#ff00ff;fill-opacity:0.453804;stroke:none;stroke-width:0.264583"
       x="2.1785605"
       y="10.944436"
       id="text4666"><tspan
         sodipodi:role="line"
         id="tspan4664"
         style="fill:#ff00ff;fill-opacity:0.453804;stroke:none;stroke-width:0.264583"
         x="2.1785605"
         y="10.944436">XD Wi-Fi</tspan></text>
  </g>
  <g
     inkscape:label="F.SilkS"
     inkscape:groupmode="layer"
     id="g1041">
    <path
       id="path15583"
       style="display:inline;color:#000000;-inkscape-font-specification:ParaAminobenzoic;fill:#000000;stroke-width:3.77953;-inkscape-stroke:none"
       d="m 12.710938,11.626953 c -1.164445,0 -2.272917,0.381791 -3.0839849,1.144531 -0.8683676,0.793661 -1.2480468,1.972839 -1.2480469,3.232422 v 2.923828 c 0,0.906174 0.2112783,1.784153 0.6347657,2.560547 l 0.00781,0.01563 0.013672,0.02148 c 0.4181356,0.707614 0.9531088,1.335436 1.5878911,1.875 l 0.01367,0.01563 0.01563,0.0059 c 0.506335,0.405069 1.103742,0.717342 1.71289,1.011719 -0.616877,0.354166 -1.387712,0.570732 -1.904296,1.011718 -1.3270716,1.132865 -2.0820321,2.720556 -2.0820321,4.4375 v 7.683594 c 0,1.47199 0.3422831,2.780894 1.2109376,3.728516 l 0.013672,0.02148 0.023437,0.01563 c 0.9352925,0.935293 2.2825725,1.291016 3.8085935,1.291016 1.52098,0 2.875902,-0.375716 3.837891,-1.298828 0.961987,-0.92312 1.380859,-2.272882 1.380859,-3.757813 v -6.998047 c 0,-0.944838 0.210138,-1.350571 0.501953,-1.59375 0.3828,-0.319013 0.895526,-0.509765 1.720703,-0.509765 0.825177,0 1.304416,0.183783 1.652344,0.486328 l 0.02148,0.02344 0.02344,0.01367 c 0.295086,0.233613 0.478515,0.569848 0.478515,1.417969 v 8.998047 c 0,0.742779 0.203625,1.483169 0.613282,2.097656 l 0.0293,0.04297 0.0293,0.03711 c 0.579078,0.737008 1.528442,1.041016 2.429688,1.041016 0.884353,0 1.817119,-0.318555 2.384765,-1.041016 l 0.01367,-0.01367 0.01563,-0.02344 c 0.450828,-0.614808 0.677735,-1.3769 0.677735,-2.140625 v -9.802735 c 0,-1.466902 -0.350993,-2.820755 -1.070313,-3.970703 -0.407757,-0.674931 -1.219597,-0.99909 -1.880859,-1.46289 0.673992,-0.511756 1.495617,-0.900143 1.904297,-1.617188 0.684856,-1.182933 1.046875,-2.467053 1.046875,-3.785156 V 14.92583 c 0,-0.868912 -0.195506,-1.71973 -0.78125,-2.36914 -0.585743,-0.649411 -1.465002,-0.929688 -2.310547,-0.929688 -0.795417,0 -1.604187,0.324054 -2.177735,0.884766 -0.661318,0.626095 -0.923828,1.521719 -0.923828,2.414062 v 3.919922 c 0,0.723393 -0.16728,1.047337 -0.568359,1.373047 -0.466192,0.352959 -0.971632,0.53125 -1.689453,0.53125 -0.753497,0 -1.280193,-0.17983 -1.742188,-0.53125 -0.399432,-0.325107 -0.560546,-0.651023 -0.560546,-1.373047 v -2.841797 c 0,-1.142938 -0.322495,-2.22059 -1.019532,-3.041015 -0.718884,-0.86945 -1.842629,-1.335938 -2.996094,-1.335938 z m 20.486328,0 c -1.024512,0 -2.048847,0.341091 -2.716797,1.099609 -0.66795,0.75852 -0.900391,1.764028 -0.900391,2.841797 v 23.636719 c 0,0.948839 0.294962,1.90516 0.996094,2.546875 0.701133,0.641715 1.642732,0.871094 2.621094,0.871094 h 8.554687 c 1.330318,0 2.562204,-0.208092 3.667969,-0.650391 l 0.0078,-0.0059 h 0.0078 c 1.102617,-0.459424 2.073374,-1.104202 2.865234,-1.927735 0.792087,-0.823765 1.391723,-1.818545 1.792969,-2.929687 0.402214,-1.113829 0.597656,-2.327907 0.597656,-3.625 v -9.279297 c 0,-1.898621 -0.152216,-3.600542 -0.464844,-5.115234 -0.295743,-1.565544 -0.87724,-2.930082 -1.763671,-4.044922 -0.863626,-1.146035 -2.055898,-2.01276 -3.478516,-2.5625 -1.462923,-0.591395 -3.213846,-0.855469 -5.269531,-0.855469 z m 34.916015,0 c -0.658998,0 -1.308141,0.104604 -1.935547,0.302735 h -0.01367 -0.0078 c -0.615897,0.205297 -1.18754,0.523407 -1.697266,0.929687 -0.503213,0.395384 -0.924058,0.885178 -1.240234,1.447266 -0.344202,0.611923 -0.525391,1.310534 -0.525391,2.015625 v 21.923828 c 0,1.171952 0.467142,2.303079 1.292969,3.128906 L 64,41.390625 l 0.02344,0.02148 c 0.864306,0.792288 2.014301,1.210938 3.210937,1.210938 h 20.603516 c 1.992982,0 3.687871,-0.505007 4.730468,-1.779297 v -0.0078 l 0.0078,-0.0078 c 0.951341,-1.197986 1.351566,-2.785343 1.351562,-4.621094 v -21.44338 c 0,-0.862717 -0.324516,-1.761185 -0.990234,-2.339844 -0.557053,-0.502208 -1.318245,-0.796875 -2.066406,-0.796875 -0.749023,0 -1.515112,0.317848 -2.044922,0.847656 l -0.02148,0.02344 -0.01563,0.01367 c -0.563588,0.614791 -0.77539,1.43828 -0.77539,2.251953 v 18.601562 c 0,1.071693 -0.243614,1.629748 -0.544922,1.935547 -0.33702,0.318267 -0.819346,0.53125 -1.712891,0.53125 -1.054242,0 -1.657656,-0.237618 -1.99414,-0.52539 -0.238617,-0.220097 -0.507813,-0.774479 -0.507813,-1.941407 v -19 c 0,-0.708814 -0.168945,-1.467011 -0.769531,-2.023437 -0.485752,-0.467452 -1.1703,-0.714844 -1.808594,-0.714844 -0.64916,0 -1.332289,0.22756 -1.84375,0.671875 -0.638267,0.533122 -0.857422,1.336593 -0.857422,2.066406 v 19 c 0,1.14644 -0.267441,1.737099 -0.634765,2.076172 -0.408609,0.37592 -0.931669,0.589844 -1.822266,0.589844 -0.683168,0 -1.133812,-0.19549 -1.609375,-0.664062 C 73.486971,34.904828 73.25,34.321902 73.25,33.365234 V 16.322266 c 0,-1.343307 -0.598349,-2.612718 -1.630859,-3.441407 -0.967764,-0.819274 -2.198491,-1.253906 -3.50586,-1.253906 z m 31.556641,0 c -1.360982,0 -2.633286,0.367902 -3.683594,1.113281 -1.127138,0.799907 -1.771484,2.134867 -1.771484,3.544922 v 21.716797 c 0,1.391305 0.651674,2.711156 1.771484,3.505859 1.050308,0.74538 2.322612,1.115235 3.683594,1.115235 1.360978,0 2.639028,-0.365094 3.669918,-1.121094 v -0.0078 c 1.09964,-0.815857 1.74805,-2.119225 1.74805,-3.492188 V 16.285156 c 0,-1.410055 -0.63653,-2.745015 -1.76367,-3.544922 -1.02855,-0.749496 -2.29909,-1.113281 -3.654298,-1.113281 z m 24.242188,0 c -0.69295,0 -1.36984,0.149304 -1.97852,0.449219 -0.55548,0.249067 -1.06227,0.597587 -1.46875,1.041016 -0.39267,0.428364 -0.70058,0.924306 -0.91601,1.46289 -0.21366,0.534115 -0.33203,1.100411 -0.33203,1.667969 v 21.119141 c 0,1.603013 0.363,2.997787 1.33008,3.964843 l 0.008,0.01367 0.006,0.0078 c 0.94846,0.908938 2.29163,1.269531 3.79492,1.269531 1.28703,0 2.51178,-0.411552 3.5,-1.195313 l 0.006,-0.0078 0.0156,-0.0078 c 1.12338,-0.929688 1.61719,-2.402389 1.61719,-4.044921 v -7.042969 c 0,-1.12388 0.25439,-1.63094 0.54492,-1.875 0.40128,-0.337074 0.96446,-0.544922 1.875,-0.544922 h 3.52149 c 0.74278,0 1.48619,-0.203587 2.08984,-0.634766 l 0.0215,-0.01563 0.0234,-0.02148 c 0.0728,-0.05719 0.13964,-0.120591 0.20508,-0.185547 v 10.955078 c 0,1.391305 0.65167,2.711155 1.77149,3.505859 1.05028,0.74538 2.32261,1.115235 3.68359,1.115235 1.36098,0 2.63903,-0.365094 3.66992,-1.121094 v -0.0078 c 1.09964,-0.815857 1.74805,-2.119225 1.74805,-3.492188 V 16.285156 c 0,-1.410055 -0.64434,-2.745015 -1.77149,-3.544922 -1.02752,-0.74669 -2.29378,-1.113281 -3.64648,-1.113281 -1.36098,0 -2.63331,0.367902 -3.68359,1.113281 -0.40676,0.288664 -0.74805,0.648551 -1.02149,1.054688 -0.1137,-0.503477 -0.34658,-0.981357 -0.7207,-1.355469 -0.63006,-0.62992 -1.48105,-0.8125 -2.33203,-0.8125 z M 12.714844,12.884766 h 1.759765 c 0.879998,0 1.559064,0.294194 2.039063,0.880859 0.479998,0.559998 0.720703,1.304951 0.720703,2.238281 v 2.841797 c 0,1.01333 0.345731,1.799377 1.039063,2.359375 0.69333,0.533332 1.532867,0.798828 2.519531,0.798828 0.959997,0 1.787137,-0.265496 2.480469,-0.798828 0.693329,-0.559998 1.041015,-1.346045 1.041015,-2.359375 v -3.919922 c 0,-0.693331 0.172866,-1.201485 0.519531,-1.521484 0.346666,-0.346666 0.786981,-0.519531 1.320313,-0.519531 1.226663,0 1.839844,0.68102 1.839844,2.041015 v 3.839844 c 0,1.09333 -0.294195,2.146826 -0.88086,3.160156 -0.559998,0.986664 -1.46542,1.745965 -2.71875,2.279297 1.25333,0.453332 2.158752,1.146748 2.71875,2.080078 0.586665,0.933331 0.88086,2.040317 0.88086,3.320313 v 9.798828 c 0,0.533332 -0.146122,1.00039 -0.439453,1.400391 -0.293333,0.37333 -0.760393,0.560546 -1.400391,0.560546 -0.666665,0 -1.146121,-0.187216 -1.439453,-0.560546 -0.266666,-0.4 -0.400391,-0.867059 -0.400391,-1.400391 v -9 c 0,-1.09333 -0.32094,-1.893726 -0.960937,-2.400391 -0.613332,-0.533331 -1.440472,-0.798828 -2.480469,-0.798828 -1.039997,0 -1.879533,0.265497 -2.519531,0.798828 -0.639998,0.533332 -0.958985,1.387217 -0.958985,2.560547 v 7 c 0,2.533325 -1.320946,3.800781 -3.960937,3.800781 -1.333329,0 -2.306591,-0.30659 -2.919922,-0.919922 C 9.927013,39.805316 9.6347656,38.844449 9.6347656,37.564453 v -7.679687 c 0,-1.386663 0.5453424,-2.547139 1.6386724,-3.480469 1.093328,-0.933331 2.480161,-1.665887 4.160156,-2.199219 -0.719998,-0.159999 -1.44016,-0.386355 -2.160156,-0.679687 C 12.580107,23.232058 11.966925,22.871978 11.433594,22.445312 10.900262,21.991982 10.459947,21.47143 10.113281,20.884766 9.7932826,20.298101 9.6347656,19.645779 9.6347656,18.925781 v -2.921875 c 0,-1.039996 0.2798459,-1.811694 0.8398434,-2.318359 0.559999,-0.533332 1.306904,-0.800781 2.240235,-0.800781 z m 20.478515,0 h 6.519532 c 1.94666,0 3.547452,0.2531 4.800781,0.759765 1.253329,0.479999 2.24094,1.20016 2.960937,2.160157 0.746664,0.933329 1.252866,2.106202 1.519532,3.519531 0.293331,1.413329 0.439453,3.040865 0.439453,4.880859 v 9.279297 c 0,1.17333 -0.172868,2.241175 -0.519532,3.201172 -0.346664,0.959997 -0.852865,1.785185 -1.519531,2.478515 -0.666663,0.69333 -1.481409,1.240626 -2.441406,1.640626 -0.933332,0.37333 -1.999224,0.560546 -3.199219,0.560546 h -8.560547 c -1.573328,0 -2.359375,-0.720161 -2.359375,-2.160156 V 15.564453 c 0,-1.786661 0.786047,-2.679687 2.359375,-2.679687 z m 34.919922,0 c 1.066664,0 1.97404,0.320939 2.720703,0.960937 0.773332,0.613332 1.160157,1.438519 1.160157,2.478516 v 17.041015 c 0,1.199997 0.333334,2.158909 1,2.878907 0.693329,0.693331 1.532865,1.041015 2.519531,1.041015 1.119995,0 2.013022,-0.30659 2.679687,-0.919922 0.69333,-0.639998 1.041016,-1.640004 1.041016,-3 v -19 c 0,-0.533331 0.131774,-0.907761 0.398437,-1.121093 0.266666,-0.24 0.61435,-0.359375 1.041016,-0.359375 0.4,0 0.718989,0.119375 0.958984,0.359375 0.24,0.213331 0.361329,0.587761 0.361329,1.121093 v 19 c 0,1.359996 0.306592,2.318908 0.919921,2.878907 0.639998,0.559998 1.586515,0.839843 2.839844,0.839843 1.119998,0 1.986278,-0.292241 2.59961,-0.878906 0.613331,-0.613331 0.919921,-1.559848 0.919922,-2.839844 V 14.765625 c -10e-7,-0.613331 0.146121,-1.080392 0.439453,-1.400391 0.32,-0.319999 0.706824,-0.480468 1.160156,-0.480468 0.479997,0 0.893568,0.160469 1.240234,0.480468 0.373332,0.319999 0.560547,0.78706 0.560547,1.400391 v 21.439453 c 0,1.653328 -0.360081,2.933181 -1.080078,3.839844 -0.719997,0.879997 -1.973105,1.320312 -3.759766,1.320312 H 67.234375 c -0.933332,0 -1.721331,-0.294193 -2.361328,-0.880859 -0.613332,-0.613329 -0.919922,-1.360237 -0.919922,-2.240234 V 16.324219 c 0,-0.506665 0.121328,-0.971772 0.361328,-1.398438 0.24,-0.426665 0.54659,-0.786745 0.919922,-1.080078 0.399997,-0.319999 0.840315,-0.560704 1.320313,-0.720703 0.506663,-0.16 1.025262,-0.240234 1.558593,-0.240234 z m 31.560547,0 c 1.146662,0 2.119922,0.294194 2.919922,0.880859 0.82666,0.586665 1.24023,1.426201 1.24023,2.519531 v 21.71875 c 0,1.039998 -0.41357,1.86714 -1.24023,2.480469 -0.8,0.586666 -1.77326,0.880859 -2.919922,0.880859 -1.146663,0 -2.134274,-0.294193 -2.960937,-0.880859 -0.826664,-0.586663 -1.238282,-1.413805 -1.238282,-2.480469 v -21.71875 c 0,-1.09333 0.411618,-1.932866 1.238282,-2.519531 0.826663,-0.586665 1.814274,-0.880859 2.960937,-0.880859 z m 24.240232,0 h 11.5586 c 0.66666,0 1.14807,0.14612 1.4414,0.439453 0.29333,0.293332 0.43946,0.706902 0.43946,1.240234 0,0.506665 -0.14613,0.920236 -0.43946,1.240235 -0.29333,0.29333 -0.77474,0.439453 -1.4414,0.439453 h -3.47852 c -0.88,0 -1.64125,0.294194 -2.28125,0.880859 -0.61333,0.559998 -0.91992,1.399535 -0.91992,2.519531 0,1.039997 0.26745,1.920628 0.80078,2.640625 0.53333,0.693331 1.30698,1.039063 2.32031,1.039063 h 3.51953 c 0.61333,0 1.08039,0.148074 1.40039,0.441406 0.34667,0.293332 0.51954,0.692554 0.51954,1.199219 0,0.559998 -0.18722,0.985964 -0.56055,1.279297 -0.37333,0.266665 -0.82604,0.40039 -1.35938,0.40039 h -3.51953 c -1.11999,0 -2.01304,0.279846 -2.67968,0.839844 -0.66667,0.559998 -1,1.506515 -1,2.839844 v 7.041015 c -10e-6,1.413329 -0.38683,2.440083 -1.16016,3.080078 -0.77333,0.613332 -1.68071,0.919922 -2.7207,0.919922 -1.30667,0 -2.27993,-0.30659 -2.91993,-0.919922 -0.63999,-0.639995 -0.95898,-1.666749 -0.95898,-3.080078 V 16.244141 c 0,-0.399999 0.0783,-0.79922 0.23828,-1.199219 0.16,-0.399999 0.38831,-0.760079 0.68164,-1.080078 0.29334,-0.319999 0.65341,-0.5731 1.08008,-0.759766 0.42666,-0.213332 0.90612,-0.320312 1.43945,-0.320312 z m 19.32032,0 c 1.14664,0 2.11992,0.294194 2.91992,0.880859 0.82666,0.586665 1.24023,1.426201 1.24023,2.519531 v 21.71875 c 0,1.039998 -0.41357,1.86714 -1.24023,2.480469 -0.8,0.586666 -1.77328,0.880859 -2.91992,0.880859 -1.14667,0 -2.13428,-0.294193 -2.96094,-0.880859 -0.82667,-0.586663 -1.24024,-1.413805 -1.24024,-2.480469 v -21.71875 c 0,-1.09333 0.41357,-1.932866 1.24024,-2.519531 0.82666,-0.586665 1.81427,-0.880859 2.96094,-0.880859 z m -5.45899,3.833984 v 6.222656 c -0.0381,-0.03781 -0.0768,-0.07417 -0.11719,-0.109375 -0.61357,-0.551067 -1.41699,-0.759765 -2.22265,-0.759765 h -3.52149 c -0.72671,0 -1.0215,-0.166231 -1.32031,-0.554688 -0.35286,-0.483854 -0.54687,-1.059563 -0.54687,-1.875 0,-0.890599 0.2123,-1.307224 0.51757,-1.585937 v -0.0078 c 0.42851,-0.392795 0.83091,-0.546875 1.43164,-0.546875 h 3.47657 c 0.83802,0 1.67579,-0.176239 2.30273,-0.783203 z m -96.781249,0.525391 c -1.41333,0 -2.121094,0.800395 -2.121094,2.40039 v 15.640625 c 0,0.639998 0.174818,1.160548 0.521484,1.560547 0.346666,0.399999 0.826122,0.59961 1.439453,0.599609 1.786661,0 3.078909,-0.36008 3.878907,-1.080078 0.799997,-0.719997 1.201171,-1.746749 1.201171,-3.080078 V 22.324219 c 0,-1.466662 -0.401174,-2.678675 -1.201171,-3.638672 -0.773332,-0.959997 -2.01209,-1.441406 -3.71875,-1.441406 z m -0.002,1.253906 c 1.471028,0 2.256085,0.366323 2.746093,0.974609 l 0.0078,0.0078 v 0.0078 c 0.598499,0.718202 0.914062,1.595814 0.914062,2.833985 v 10.96289 c 0,1.08199 -0.275787,1.686477 -0.789062,2.148438 -0.454228,0.408805 -1.417308,0.751953 -3.035156,0.751953 -0.340158,0 -0.387706,-0.0393 -0.494141,-0.162109 -0.129411,-0.149326 -0.212891,-0.325189 -0.212891,-0.738282 V 19.642578 c 0,-0.614983 0.134768,-0.87835 0.212891,-0.966797 0.07812,-0.08844 0.180841,-0.177734 0.650391,-0.177734 z m 67.205079,5.648437 c -0.74278,0 -1.52698,0.204711 -2.08985,0.767578 -0.56287,0.562871 -0.76758,1.347065 -0.76758,2.089844 0,0.727137 0.2191,1.509313 0.78907,2.050782 0.56996,0.541466 1.33605,0.724609 2.06836,0.724609 h 7.91992 c 0.73231,0 1.48862,-0.183144 2.05859,-0.724609 0.56997,-0.541469 0.79883,-1.323645 0.79883,-2.050782 0,-0.742779 -0.21251,-1.526973 -0.77539,-2.089844 -0.56287,-0.562868 -1.33925,-0.767578 -2.08203,-0.767578 z m -0.004,1.257813 h 7.91992 c 1.06666,0 1.59961,0.532946 1.59961,1.599609 0,1.01333 -0.53295,1.521485 -1.59961,1.521485 h -7.91992 c -1.06666,0 -1.59961,-0.508155 -1.59961,-1.521485 0,-1.066663 0.53295,-1.599609 1.59961,-1.599609 z"
       transform="scale(0.26458333)" />
  </g>
  <g
     inkscape:label="Dwgs.User"
     inkscape:groupmode="layer"
     id="g1043" />
  <g
     inkscape:label="Drill"
     inkscape:groupmode="layer"
     id="g1045" />
</svg>
